<mxfile host="app.diagrams.net" modified="2022-03-26T02:34:04.481Z" agent="5.0 (Windows NT 10.0; Win64; x64) AppleWebKit/537.36 (KHTML, like Gecko) Chrome/99.0.4844.84 Safari/537.36" etag="LmiqcasgLXT-Q2xsBT27" version="14.9.8" type="github">
  <diagram id="CLLQRjAEh40k3ETHGl2m" name="Page-1">
    <mxGraphModel dx="981" dy="542" grid="1" gridSize="10" guides="1" tooltips="1" connect="1" arrows="1" fold="1" page="1" pageScale="1" pageWidth="850" pageHeight="1100" math="0" shadow="0">
      <root>
        <mxCell id="0" />
        <mxCell id="1" parent="0" />
        <mxCell id="IuA_IKRbOxsT7F4-4wZG-19" value="" style="edgeStyle=orthogonalEdgeStyle;rounded=0;orthogonalLoop=1;jettySize=auto;html=1;startArrow=classic;startFill=1;" edge="1" parent="1" source="IuA_IKRbOxsT7F4-4wZG-3" target="IuA_IKRbOxsT7F4-4wZG-16">
          <mxGeometry relative="1" as="geometry">
            <Array as="points">
              <mxPoint x="270" y="320" />
              <mxPoint x="270" y="320" />
            </Array>
          </mxGeometry>
        </mxCell>
        <mxCell id="IuA_IKRbOxsT7F4-4wZG-3" value="" style="verticalLabelPosition=bottom;verticalAlign=top;html=1;shadow=0;dashed=0;strokeWidth=1;shape=mxgraph.android.phone2;strokeColor=#c0c0c0;" vertex="1" parent="1">
          <mxGeometry x="210" y="330" width="110" height="200" as="geometry" />
        </mxCell>
        <mxCell id="IuA_IKRbOxsT7F4-4wZG-4" value="&lt;font style=&quot;font-size: 7px&quot;&gt;Android Mobile Application&lt;/font&gt;" style="text;html=1;align=center;verticalAlign=middle;resizable=0;points=[];autosize=1;strokeColor=none;strokeWidth=0;" vertex="1" parent="1">
          <mxGeometry x="215" y="420" width="100" height="20" as="geometry" />
        </mxCell>
        <mxCell id="IuA_IKRbOxsT7F4-4wZG-5" value="" style="shape=image;verticalLabelPosition=bottom;labelBackgroundColor=#ffffff;verticalAlign=top;aspect=fixed;imageAspect=0;image=https://i.stack.imgur.com/Mig6k.png;" vertex="1" parent="1">
          <mxGeometry x="70" y="460" width="400" height="300" as="geometry" />
        </mxCell>
        <mxCell id="IuA_IKRbOxsT7F4-4wZG-7" value="&lt;p&gt;&lt;span&gt;Navigation Drawer&lt;/span&gt;&lt;/p&gt;&lt;p&gt;&lt;br&gt;&lt;/p&gt;" style="rounded=0;whiteSpace=wrap;html=1;strokeWidth=0;align=left;" vertex="1" parent="1">
          <mxGeometry x="320" y="480" width="110" height="50" as="geometry" />
        </mxCell>
        <mxCell id="IuA_IKRbOxsT7F4-4wZG-8" value="Fragments" style="rounded=0;whiteSpace=wrap;html=1;strokeWidth=0;" vertex="1" parent="1">
          <mxGeometry x="385" y="520" width="115" height="30" as="geometry" />
        </mxCell>
        <mxCell id="IuA_IKRbOxsT7F4-4wZG-18" style="edgeStyle=orthogonalEdgeStyle;rounded=0;orthogonalLoop=1;jettySize=auto;html=1;exitX=0.5;exitY=1;exitDx=0;exitDy=0;startArrow=classic;startFill=1;" edge="1" parent="1" source="IuA_IKRbOxsT7F4-4wZG-10">
          <mxGeometry relative="1" as="geometry">
            <mxPoint x="270.0344827586207" y="259.9999999999999" as="targetPoint" />
          </mxGeometry>
        </mxCell>
        <mxCell id="IuA_IKRbOxsT7F4-4wZG-10" value="OpenWeather.com" style="rounded=0;whiteSpace=wrap;html=1;strokeWidth=0;" vertex="1" parent="1">
          <mxGeometry x="210" y="170" width="120" height="60" as="geometry" />
        </mxCell>
        <mxCell id="IuA_IKRbOxsT7F4-4wZG-11" value="..." style="rounded=0;whiteSpace=wrap;html=1;strokeWidth=0;" vertex="1" parent="1">
          <mxGeometry x="340" y="170" width="120" height="60" as="geometry" />
        </mxCell>
        <mxCell id="IuA_IKRbOxsT7F4-4wZG-12" value="..." style="rounded=0;whiteSpace=wrap;html=1;strokeWidth=0;" vertex="1" parent="1">
          <mxGeometry x="470" y="170" width="120" height="60" as="geometry" />
        </mxCell>
        <mxCell id="IuA_IKRbOxsT7F4-4wZG-13" value="" style="html=1;dashed=0;whitespace=wrap;fillColor=#2875E2;strokeColor=#ffffff;points=[[0.005,0.63,0],[0.1,0.2,0],[0.9,0.2,0],[0.5,0,0],[0.995,0.63,0],[0.72,0.99,0],[0.5,1,0],[0.28,0.99,0]];shape=mxgraph.kubernetes.icon;prIcon=api" vertex="1" parent="1">
          <mxGeometry x="125" y="176" width="50" height="48" as="geometry" />
        </mxCell>
        <mxCell id="IuA_IKRbOxsT7F4-4wZG-14" value="Client" style="outlineConnect=0;fontColor=#232F3E;gradientColor=none;strokeColor=#232F3E;fillColor=#ffffff;dashed=0;verticalLabelPosition=bottom;verticalAlign=top;align=center;html=1;fontSize=12;fontStyle=0;aspect=fixed;shape=mxgraph.aws4.resourceIcon;resIcon=mxgraph.aws4.client;" vertex="1" parent="1">
          <mxGeometry x="120" y="450" width="60" height="60" as="geometry" />
        </mxCell>
        <mxCell id="IuA_IKRbOxsT7F4-4wZG-15" value="" style="outlineConnect=0;fontColor=#232F3E;gradientColor=none;fillColor=#232F3E;strokeColor=none;dashed=0;verticalLabelPosition=bottom;verticalAlign=top;align=center;html=1;fontSize=12;fontStyle=0;aspect=fixed;pointerEvents=1;shape=mxgraph.aws4.internet_alt2;" vertex="1" parent="1">
          <mxGeometry x="220" y="260" width="50" height="50" as="geometry" />
        </mxCell>
        <mxCell id="IuA_IKRbOxsT7F4-4wZG-16" value="Retrofit" style="text;html=1;align=center;verticalAlign=middle;resizable=0;points=[];autosize=1;strokeColor=none;" vertex="1" parent="1">
          <mxGeometry x="270" y="275" width="50" height="20" as="geometry" />
        </mxCell>
        <mxCell id="IuA_IKRbOxsT7F4-4wZG-21" style="edgeStyle=orthogonalEdgeStyle;rounded=0;orthogonalLoop=1;jettySize=auto;html=1;entryX=1.003;entryY=0.25;entryDx=0;entryDy=0;entryPerimeter=0;startArrow=classic;startFill=1;" edge="1" parent="1" source="IuA_IKRbOxsT7F4-4wZG-20" target="IuA_IKRbOxsT7F4-4wZG-3">
          <mxGeometry relative="1" as="geometry" />
        </mxCell>
        <mxCell id="IuA_IKRbOxsT7F4-4wZG-20" value="Firebase Auth /&lt;br&gt;Firebase Database" style="rounded=0;whiteSpace=wrap;html=1;strokeWidth=0;" vertex="1" parent="1">
          <mxGeometry x="365" y="350" width="120" height="60" as="geometry" />
        </mxCell>
        <mxCell id="IuA_IKRbOxsT7F4-4wZG-22" value="" style="shape=image;verticalLabelPosition=bottom;labelBackgroundColor=#ffffff;verticalAlign=top;aspect=fixed;imageAspect=0;image=https://firebase.google.com/images/homepage/cloud-plus-firebase_1x.png;" vertex="1" parent="1">
          <mxGeometry x="490" y="360.01" width="91.2" height="39.99" as="geometry" />
        </mxCell>
        <mxCell id="IuA_IKRbOxsT7F4-4wZG-23" value="DB" style="shape=cylinder3;whiteSpace=wrap;html=1;boundedLbl=1;backgroundOutline=1;size=15;strokeWidth=0;" vertex="1" parent="1">
          <mxGeometry x="460" y="310" width="40" height="60" as="geometry" />
        </mxCell>
        <mxCell id="IuA_IKRbOxsT7F4-4wZG-24" value="RecyclerView" style="rounded=0;whiteSpace=wrap;html=1;strokeWidth=0;fillColor=none;" vertex="1" parent="1">
          <mxGeometry x="425" y="545" width="115" height="30" as="geometry" />
        </mxCell>
        <mxCell id="IuA_IKRbOxsT7F4-4wZG-29" value="" style="endArrow=classic;startArrow=classic;html=1;entryX=0;entryY=0.5;entryDx=0;entryDy=0;" edge="1" parent="1">
          <mxGeometry width="50" height="50" relative="1" as="geometry">
            <mxPoint x="330" y="557" as="sourcePoint" />
            <mxPoint x="425" y="557" as="targetPoint" />
          </mxGeometry>
        </mxCell>
      </root>
    </mxGraphModel>
  </diagram>
</mxfile>
